<?xml version="1.0" encoding="UTF-8"?>
<svg id="Capa_2" data-name="Capa 2" xmlns="http://www.w3.org/2000/svg" viewBox="0 0 158.41 51.89">
  <g id="Capa_1-2" data-name="Capa 1">
    <path d="M6.45.82C13.12-.37,37.16-.11,44.38.64c4.56.48,6.61,2.47,7.1,7.06.92,8.71.78,26.87.03,35.72-.36,4.24-1.77,7.25-6.36,7.79-8.4.99-28.8.81-37.41.02-4.53-.41-6.58-2.5-7.06-7.1-.89-8.44-.89-28,0-36.43C1.06,3.99,2.57,1.51,6.45.82ZM22.34,10.31c-4.2-.49-8.76-1.74-12.75.45-1.4,7.15,2.95,22.94,10.89,24.81,5.68,1.34-2.04-3.65-2.38-3.96-5.42-5.15-6.06-12-5.49-19.08,2.8-.2,6.18.56,8.79-.55,1.06-.45,1.13-.17.93-1.67ZM42.43,10.38c-6.75-1.92-15.33-.29-20.86,4-2.06,1.59-7.6,6.8-3.73,8.57,3.46-9.07,12.78-11.35,21.68-10.41.61.61-1.43,9.45,2.23,10.41l.68-12.56ZM42.41,41.43c.43-5.71.18-11.74-2.6-16.91-1.6-2.98-6.35-8.68-10-8.26l7.85,8.91c2.1,4.46,2.01,8.84,1.91,13.68-3.14,2.59-7.62-1.37-9.76,2.68,4.15.48,8.54,1.66,12.6-.1ZM12.7,39.23c-.38-2.27.28-4.69-.11-6.95-.13-.75-1.16-3.29-2.2-3.38l-.43,12.68c5.43,1.76,13.42.29,18.38-2.63,2.53-1.49,10.51-7.66,5.96-10.06-2.88,8.59-13.37,11.88-21.6,10.33Z"/>
    <path d="M90.32,43.02l-7.74-.1c-2.13-1.02-.76-4.14-3.06-4.41-4.49-.53-10.87-1.16-10.96,4.42l-8.13.09,10.45-29.42,9.37,1.15,10.06,28.27ZM77.63,31.87c.49-.43-1.24-7.82-2.98-8.17l-2.25,8.17h5.23Z"/>
    <path d="M120.96,20.35c.56-1.81,9.17-2.27,8.59,1.86,3.19-3.4,9.25-3.92,12.73-.77.49.45,2.59,3.87,2.59,4.12v17.47h-8.22v-14.5c0-2.26-7.47-2.94-7.47.74v13.75h-8.22v-22.67Z"/>
    <path d="M94.06,27.78l-3.04-1.57v-5.79c4.01-.92,2.44-2.25,3.38-4.94,1.39-3.96,6.97-5.82,10.87-5.18l.05,6.99-3.04,1.93,2.89.1c.77,1.47,1.62,6.12.14,7.01l-3,.35-.35,15.63-7.89.7v-15.24Z"/>
    <path d="M116.48,43.02h-8.22v-22.67c0-1.64,8.22-1.64,8.22,0v22.67Z"/>
    <path d="M157.57,43.02h-8.22v-22.67c0-1.64,8.22-1.64,8.22,0v22.67Z"/>
    <path d="M110.27,9.71c9.79-2.96,8.82,10.58,0,7.89-3.4-1.04-3.35-6.88,0-7.89Z"/>
    <path d="M149.53,10.48c3.43-3.42,12.49,1.05,7.33,6.18-4.25,4.23-11.29-2.24-7.33-6.18Z"/>
  </g>
</svg>