<?xml version="1.0" encoding="UTF-8"?>
<svg id="Capa_2" data-name="Capa 2" xmlns="http://www.w3.org/2000/svg" viewBox="0 0 121.73 79.71">
  <g id="Capa_1-2" data-name="Capa 1">
    <path d="M5.3,29.16v16.4c6.51,1.52,7.01-2.42,10.81-5.23,1.69-1.24,8.33-2.32,2.99-5.2l-1.5,3.72c-3.32.95-4.33-5.06,1.52-5.26,8.76-.3,5.45,7.69,7.06,13.44-2.34,1.56-3.46-.63-4.84-.7-2-.1-4.54,3.43-7.47-.76-.63-.25-.07,1.29-.85,1.5-3.13.82-9.39-.61-12.95-.02-.37-.27.75-.95.75-1.11v-15.65c0-.16-1.12-.84-.75-1.11h5.22ZM21.71,39.59c-.92-1.03-5.94,3.89-2.6,5.21,2.75,1.08,2.66-3.6,2.6-5.21Z"/>
    <path d="M93.37,26.18H30.3l-.8-1.52C39.16,4.76,63.23-2.47,81.66,10.66c5.15,3.67,10.33,9.24,11.71,15.51ZM91.13,24.68c-.54-4.72-5.76-9.71-9.46-12.54C64.67-.88,39.8,5.2,31.42,24.68h59.71Z"/>
    <path d="M93.37,53.75c1.24,1.18-4.54,9.07-5.67,10.36-13.79,15.79-39.45,15.39-52.85-.73-1.96-2.35-4.97-6.61-4.91-9.63h63.44ZM91.87,54.5H31.42c10.57,26.67,49.8,26.72,60.45,0Z"/>
    <path d="M48.38,30.1c4.37,4.75-7.76,8.76-4.27-.19-9.74.79-8.42,19.3,3.01,13.8,2.73-1.31,1.27,1.39-.51,2.47-8.96,5.45-16.79-5.44-11.46-13.68,2.51-3.89,10-5.91,13.23-2.41Z"/>
    <path d="M26.19,53.75c9.47,27.23,45.33,33.61,63.83,11.19,2.69-3.26,4.26-6.57,6.15-10.26,1.51-2.95.46,2.29-.16,3.58-13.45,27.86-52.83,28.66-68.45,1.96-.63-1.08-4.62-7.31-1.38-6.46Z"/>
    <path d="M62.77,47.04c-2.25,1.53-4.03-.72-5.48-.59-1.74.16-4,2.95-6.53-.47-3.93-5.32,6.46-6.81,6.78-8.26.23-1.14-2.35-3.24-2.98-2.59l-1.86,3.72-1.82-1.96c1.43-4.97,10.23-3.92,11.12.87.53,2.83-.61,6.29.77,9.29ZM57.17,39.61c-2.32-.1-3.84,4.7-1.49,5.19,2.11.45,3.56-5.1,1.49-5.19Z"/>
    <path d="M88.14,45.18c.02.33,1.03,1.09.75,1.86-3.78,2.01-4.14-1.25-4.49-1.48-.51-.33-7.69,6.17-8.87-2.69-.55-4.16-1.25-9.82,4.4-8.5l.12,9.94c1.13,2.21,2.96,1.41,3.8-.44,1.46-3.22-.08-6.25-.19-9.5h4.48c.16,3.57-.22,7.23,0,10.8Z"/>
    <path d="M97.09,25.43c-3.02-3.88-4.88-8.57-8.23-12.27-14.85-16.46-40.92-16.11-55.59.34-2.96,3.32-4.55,6.74-6.72,10.46-.57.97.13,1.88-1.86,1.46,12.03-33.58,61.16-34.22,72.39,0Z"/>
    <path d="M121.73,47.04c-2.35,1.53-3.49-.66-4.85-.72-1.18-.05-2.19,1.32-3.6,1.29-4.68-.1-5.05-4.99-1.2-7.58,1.74-1.17,8.17-2.44,2.19-4.9.31,6.51-5.66,3.28-3.4-.04,1.29-1.9,7.26-1.73,8.98.05,2.28,2.36.26,8.69,1.88,11.91ZM117.25,39.59c-.92-1.03-5.94,3.89-2.6,5.21,2.75,1.08,2.66-3.6,2.6-5.21Z"/>
    <path d="M95.6,43.32c-.4,3.24,4.62.84,5.97,0-3.19,8.41-14.22,3.32-11.36-5.01,4.06-11.83,21.98,1.62,5.39,5.02ZM94.12,41.82c2.05.14,4.53-2.13,4.45-4.11l-1.46-2.25c-3.46-.19-3.04,3.96-2.99,6.36Z"/>
    <path d="M74.71,34.37c1.03.9-5.54,8.98-5.96,10.07-.97,2.51,5.01.13,5.21.36v2.23s-10.44,0-10.44,0l5.97-10.81-5.21.38v-2.24s10.44,0,10.44,0Z"/>
    <path d="M107.55,29.16v16.02c0,.23,1.03,1.05.74,1.86h-5.22c1.22-5.61,1.13-11.85-.01-17.5l4.49-.38Z"/>
  </g>
</svg>