<?xml version="1.0" encoding="UTF-8"?>
<svg id="Capa_2" data-name="Capa 2" xmlns="http://www.w3.org/2000/svg" viewBox="0 0 207.74 47.89">
  <g id="Capa_1-2" data-name="Capa 1">
    <path d="M12.82,47.69c-3.15-.65-7.15-4.93-8.73-7.68C-1.69,29.93-1.64,14.38,6.14,5.35,10.74.02,15.91-.23,22.55.09c1.24.06,2.12.72,1.11,1.48-3.74.82-7.55,5.09-9.11,8.42-4.84,10.27-4.23,27.63,5.34,35.13,1.35,1.06,3.16,1.03,3.77,2.57-3.2-.45-7.88.62-10.84,0Z"/>
    <path d="M81.34,25.48l5.88-.1-3.32,18.63c-7.68,3.17-3.68-4.69-3.41-8.97-2.41,1.25-2.4,5.32-5.63,5.21-2.9-.1-2.28-5.19-2.96-5.21l-2.21,8.96c-1.95,1.31-4.88,1.43-4.58-1.52.6-5.71,2.48-11.33,2.68-17.11l5.27.33,3.32,7.84,4.96-8.07Z"/>
    <path d="M73.76,22.4l3.69-19.02c4.96-.61,14.37-1.8,12.44,5.68-.35,1.37-1.67,2.74-1.79,3.43-.21,1.21,1.71,2.43,1.24,4.89-.27,1.4-2.56,5.01-3.99,5.01h-11.59ZM80.49,11.25c5.34,1.09,6.59-4.21.8-3.65l-.8,3.65ZM84.23,14.97c-3.34-.72-4.87-1.38-4.49,2.97l3.76-.35.73-2.62Z"/>
    <path d="M101.21,43.01c-3.07,2.76-9.37,1.39-13.25,1.71l3.05-19.28c2.7.17,10.86-1,12.3,1.41.5,1.54.69,3.96.22,5.46-.32,1.05-1.98,1.84-1.97,2.35,0,.26,1.15,1.18,1.35,2.25.37,1.91-.24,4.77-1.7,6.09ZM98.44,29.84h-3.75s0,3.71,0,3.71l3.64-.84.1-2.87ZM93.2,40.25c2.25.26,4.8.03,5.23-2.59-2.63-2.51-6.04-1.25-5.23,2.59Z"/>
    <path d="M123.11,22.4l-5.28-.32c-1.31-.93-.51-6.32-3.31-6.38l-1.82,6.38-4.54.32,3.05-19.28c4.1.08,8.63-.88,12.32,1.39.58.82.52,5.14.31,6.34-.3,1.78-2.61,3.48-2.7,4.47-.11,1.26,2.77,6.31,1.97,7.07ZM118.56,7.59l-3.68-.06v4.47c3.24.53,4.98-1.47,3.68-4.41Z"/>
    <path d="M120.12,44.71c-1.63-.05-3.6.41-4.93-.67-1.77-1.45-.9-6.72-3.67-6.77l-1.45,6.75-4.91.7,3-19.33c6.07.23,15.15-2.17,12.65,6.98-.57,2.09-2.21,3.48-2.24,5.27-.03,2.26,2.05,4.59,1.55,7.08ZM115.54,33.47c1.88-3.56-.31-3.9-3.64-3.63v3.72s3.64-.09,3.64-.09Z"/>
    <path d="M31.14,16.45c-3.1.99-5.85-1.87-8.43-1.37-2.83.54-5.06,4.59-5.03,7.32h8.97s0,3.72,0,3.72h-8.97c-.71.7,1.64,5.22,2.58,5.98,3.56,2.88,6.86-.86,10.88-.03-1.62,6.49-9.59,8.27-13.81,2.95s-4.27-17.75,1.07-22.69c4.25-3.94,11.87-1.81,12.74,4.12Z"/>
    <path d="M207.61,32.07l-4.45-.07c.51-5.1-8.7-2.56-3.74.4,2.91,1.73,7.48.89,7.48,5.99,0,8.09-17.27,9.43-15.01-.37,1.16.2,3.57-.41,4.36.14,1.27.88.8,4.36,5.36,2.09.65-3.62-3.44-3.05-5.76-4.3-5.2-2.79-3.4-9.68,2.43-10.53s10.29,0,9.31,6.66Z"/>
    <path d="M155.18,33.47l-4.4.09-.35-3.75c-5.68-3.41-8.5,15.1-1.16,9.32l-1.48-3.34h7.47c-.54,6.5-4.73,10.26-11.44,8.77-5.96-1.32-3.79-11.74-1.86-15.67,3.11-6.34,18.19-4.64,13.21,4.58Z"/>
    <path d="M108.16,3.07l-.84,4.37-8.88.09v3.72s6.74.38,6.74.38l-.83,3.26c-1.08.97-8.49-1.91-7.4,3.05h8.23c.01,1.68.41,3.42-1.12,4.46h-12.34l2.99-19.34h13.46Z"/>
    <path d="M64.79,25.38c1.13,6.52-4.49,4.07-8.98,4.46v2.97s5.99,0,5.99,0c.94,5.95-3.09,4.35-7.48,4.46v2.97s8.23,0,8.23,0c.43,1.03-1.16,4.46-1.87,4.46h-11.22l-.99-1.68,2.98-16.42,1-1.23h12.34Z"/>
    <path d="M191.9,25.38c-.32,6.34-4.94,4.18-9.72,4.46v2.97c1.28.15,6.44-.64,6.57,1.09l-.61,3.35c-.58.75-8.75-1.83-7.45,3h8.23c.01,1.68.41,3.42-1.12,4.46h-12.34l2.99-19.34h13.46Z"/>
    <path d="M164.24,25.38c1.07,2.29-3.43,14.54-1.04,14.91,7.43,1.99,4.39-13.93,7.49-14.82,1.06-.3,4.26-.8,4,.99-.8,5.61-1.48,16.75-7.99,18.09-14.13,2.92-7.83-11.2-6.89-19.12l4.43-.06Z"/>
    <path d="M58.81,11.99c.48-1.63.75-2.81-.09-4.38h-3.56c-1,1.65-2.67,10.31-1.57,11.07,2.5,1.72,4.61-2.91,4.97-2.99,1.12-.26,2.75.19,3.99.03,1.84,7.53-13.24,9.74-14.2,4.08-.48-2.85.33-9.22,1.43-11.94,1.75-4.32,6.44-5.58,10.75-4.63,6,1.33,5.46,10.69-1.72,8.77Z"/>
    <path d="M136.57,25.38v19.34h-4.49s0-4.47,0-4.47c-4.36-.52-5.28.24-6.07,4.38l-4.41-.3c-.09-1.19,5.67-17.54,6.34-18.23,1.51-1.55,6.36-.37,8.62-.72ZM132.08,36.54l-.37-6.69c-1.18.65-3.18,6.14-2.62,6.69h2.99Z"/>
    <path d="M40.86,36.54c-1.66,7.08-9.49,12.61-16.74,9.58-1.41-.59-5.9-4.3-6.44-5.5-1.13-2.5,2.83.77,3.53.96,5.11,1.39,9.49-.52,11.92-5.07l7.73.03Z"/>
    <path d="M40.86,11.25c-2.33-.29-5.56.51-7.71-.13-1.25-.37-2.54-2.62-3.98-3.48-3.95-2.37-7.86-1.75-11.11,1.38-1.08-.77.72-2.98,1.49-3.72,7.53-7.35,18.31-3.31,21.32,5.96Z"/>
    <path d="M73.02,3.07l-3.02,19.31-4.47.03c-.03-1.34-.05-2.67.08-4.02.19-1.89,2.05-13.9,2.5-14.62.74-1.19,3.55-.6,4.9-.7Z"/>
  </g>
</svg>