<?xml version="1.0" encoding="UTF-8"?>
<svg id="Capa_2" data-name="Capa 2" xmlns="http://www.w3.org/2000/svg" viewBox="0 0 141.98 86.41">
  <g id="Capa_1-2" data-name="Capa 1">
    <path d="M87.86,40.23c-1.22,1.13-3.62,2.47-5.18,3.05l-.78,3.32c-.92.21-1.96.78-2.79.95-5.28,1.1-8.92,1.02-14.12.14-1.65-.28-3.28.27-4.88-1.11-1.01-.87-1.1-2.51-1.85-3.37-.61-.7-1.63-.83-2.28-1.46-2.75-2.68-5.49-5.06-7.07-8.62-3.36-.59-6.96-.59-8.08-4.43l.62-2.54c1.71-.95,3.84-1.12,5.44-1.67.93-.32,1.29-1.34,2-1.74,8.27-4.65,30.93-4.18,39.94-1.7,2.93.8,5.33,3.21,6.26,3.47,1.05.29,2.11-.15,3.31.44,1.85.91,3,3.76,1.87,5.63-1.96,2.17-5.09,2.34-7.86,2.25-.63,2.31-2.79,5.8-4.53,7.42.99.22,1.7-.77,2.61-.77.76,0,1.5.73,2.27.76,1.74.08,3.5-.01,5.24,0,1.15,0,2.98-.68,2.62,1.12-.95,1.44-1.97,1.05-3.37,1.12-2.63.13-9.55,1.08-9.38-2.24ZM87.86,24.58c-6.65-.75-13.13-1.85-19.91-1.52-3.17.15-6.91,1.44-10.46.78l-3.38,1.48c1.57-.41,2.82.55,4.13.74,8.57,1.24,19.02,1.15,27.62-.12.47-.07,2.27-.53,2-1.36ZM66.11,37.99h-3.75v.74h3.75v-.74Z"/>
    <path d="M.11,72.26c-.59-1.94,1.3-2.57,1.52-4.08.58-4.03-.5-9.21.02-13.4l-1.57-.79.43-2.59h8.61s0,2.97,0,2.97l-2.24.03c.41,4.1-.56,9.09-.03,13.05.12.89.38,1.37,1.2,1.79,2.93.48,6.63-.4,7.09-3.66l2.98.73c-.67-6.2,2.54-8.83,8.62-8.19,1.47.15,2.86,1.66,4.52.06,1.91.04.83,7.47,1.09,9.27.22,1.51,2.11,2.14,1.52,4.08l-9.98,1.4-3.18-1.37-3.34-4.5-2.63,5.9c-.31,0-.56-.69-.75-.69H.11ZM27.09,61.11l-3.28.04-1.87,2.66c.22,3.25,1.47,6.15,5.17,5.46-.29-3.09,1.55-5.16-.03-8.17Z"/>
    <path d="M75.11,72.26l.35-3,6.4-7.06c-.49-.84-2.28-.39-3.02-.02s-1.42,2.22-2.6,1.88c-2.31-.66,0-4.14,1.1-4.86l18.02-.35.05,9.26,1.83,1.19,2.26-1.49c.52-1.03.6-3.66.27-4.78-.37-1.24-2.96-1.93-2.16-4.18l5.97.03c.85,2.17.84,3.99.77,6.29-.04,1.26-1.23,2.21.16,4.01l1.29.16.07,2.17c-1.49-.24-2.68.83-4.13.81-1.16-.01-2.2-.83-2.89-.72-2,.31-2.41,2.74-5.72.28-4.66-3.48.41-9.67-4.86-11.52l-7.15,8.56c-.16,1.09-.06,1.36,1.08,1.08,2.14-.52,3.98-1.12,5.29-2.94,2.2,1.52.67,3.76-.75,5.21h-11.62Z"/>
    <path d="M47.1,52.26c4.31-.94,9.7.9,10.79,5.47.03,1.96-2.68,2.03-4.13,2.61-1.51-.39-.75-5.27-3.78-5.25-3.57.02-5.18,4.85-4.87,7.86.84,8.16,7.94,8.46,11.62,1.87l1.87,1.12c-.67,6.09-7.8,8.26-13,6.2-8.11-3.22-6.95-18.04,1.49-19.87Z"/>
    <path d="M72.86,58.85c.32.33-.24,7.08-.02,8.59s2.12,2.14,1.52,4.08c-1.63.24-3.25.99-4.88,1.21-.31.04-1.08-.44-2.07-.36-2.06.16-2.24,1.41-5.03-.49-5.48-3.74-3.47-13.64,3.36-13.52,1.04.02,2.63,1.2,3.77,1.28,1.35.1,2.09-.86,3.35-.78ZM63.95,61.92c-1.28,1.21-.7,6.1.63,7.02,4.6,3.18,5.15-7.11,1.82-7.81-.26-.05-2.36.7-2.45.79Z"/>
    <path d="M140.36,58.85c.32.33-.24,7.07-.02,8.59s2.12,2.14,1.52,4.08c-1.63.24-3.25.99-4.88,1.21-.31.04-1.08-.44-2.07-.36-2.06.16-2.24,1.41-5.03-.49-4.46-3.05-4.15-10.13.45-12.94,3.63-.79,6.74,1.22,10.04-.08ZM135.84,61.85c-5.25-1.87-5.72,1.87-4.39,6.22l1.09,1.15,3.32.06-.03-7.43Z"/>
    <path d="M118.61,70.03c.34-.13,1.03.12,1.49,0,.06-2.1-.05-4.21.02-6.32.06-1.79.1-1.86-.04-3.77-.15-2.02,1.55-2.35-1.45-4.47v-.68s5.98-3.38,5.98-3.38v17.51c1.48,1.42,2.83.68,2.25,3.35h-8.25c-.06-.73.09-1.52,0-2.23-1.17.45-1.48,1.42-2.25,1.87-3.14,1.82-7.3,1.13-9.36-1.88-1.57-2.3-1.14-4.42-1.16-7.08l.37-1.12c3.48-4.78,10.12-4.17,11.62,1.82l-7.47,4.54c0,.46,2.54,1.91,3.26,1.8,1.26-.21,2.91-2.43,3.85-2.17,1.04.7.99,1.17,1.13,2.24ZM112.61,61.83l-2.25.37-.74.75v1.86s2.99-.76,2.99-.76v-2.22Z"/>
    <path d="M57.09,78.24l1.15,3.7.37-3.73h3.75c-.5,2.28,2.05,4.44-.41,5.92-1.71.5-2.78-.48-3.85-.58-1.18-.11-4.72,1.92-5.43-.55-.26-.91.36-3.3-.43-3.3l-1.91,1.87.79,2.6h-3c.85-2.38.85-3.57,0-5.96l8.98.02ZM55.24,79.71c-.49,0-.49.74,0,.74s.49-.74,0-.74ZM60.49,79.71c-.49,0-.49.74,0,.74s.49-.74,0-.74ZM56.36,81.95h-1.5v.74h1.5v-.74ZM60.49,81.95c-.49,0-.49.74,0,.74s.49-.74,0-.74Z"/>
    <path d="M28.61,76.75v2.22s-3.74,0-3.74,0l5.25,2.24-.63-1.88c.12-.31.33-.54.6-.74,3.86-2.81,5.06,2.16,4.52,5.6-2.52.17-4.11.25-6-1.49l-.05,1.41-5.95.08,1.12-2.98,3.37,1.49c.33-2.07-.38-1.26-1.71-1.64-.66-.19-1.24-.69-2.01-.62l.32-3.72c1.48-1.67,3.23-.19,4.89.04ZM31.99,79.71c-.49,0-.49.74,0,.74s.49-.74,0-.74ZM31.99,81.95c-.49,0-.49.74,0,.74s.49-.74,0-.74Z"/>
    <path d="M37.68,78.15l2.98.39.7,1.91,3.37-2.84c1.88.67,3,1.84,3.31,3.85l-1.87,2.65c-.91.05-2.06.25-2.89.02-1.25-.35-.88-2.19-1.55-2.19l-1.56,2.18h-3.64c-2.31-.64-.26-6.31-1.93-8.14,1.96-.3,2.79.29,3.07,2.17ZM39.86,79.71h-2.25s0,2.98,0,2.98h1.12s1.13-1.12,1.13-1.12v-1.86ZM45.86,79.71h-2.25v2.98h2.25v-2.98Z"/>
    <path d="M48.86,42.46l3.38,1.49c2.02,2.93-5.56,2.27-7.13,2.24l.05-2.94,1.45-.78h-5.25s0-2.24,0-2.24c2.86.46,7.55-.64,10.1.03s-.61,3.17-2.6,2.21Z"/>
    <path d="M80.36,75.98l.75,8.2c-1.2.4-2.53-.48-3.37-.48-2.27.01-4.65,2.04-4.89-2.12-.21-3.6,1.16-3.62,4.49-3.34l.03,4.07,1.5.37-.75-6.7h2.25ZM75.86,79.71h-1.5v.74h1.5v-.74ZM76.61,81.95h-2.25v.74h2.25v-.74Z"/>
    <path d="M64.24,1.49c1.84-.53,2.81,4.24,2.53,5.48-.19.81-1.09,1.6-1.3,2.45-.58,2.39,1.57,3.9-.48,5.48-3.39-1.13-3.06-4.82-1.24-7.18l.49-6.22Z"/>
    <path d="M78.86,14.9c-1.1.03-1.88.27-2.63-.74-2.45-3.33-.03-5.25.95-8.58,0-1.16-2.69-2.52-.19-4.09,1.83-.56,2.81,4.25,2.53,5.48-.22.96-1.28,1.79-1.43,3.08-.22,1.87.93,3.06.77,4.84Z"/>
    <path d="M72.11,13.41c-2.12.54-2.77-.62-3.01-2.6-.38-3.19,1.54-4.44,1.54-5.97,0-1.77-2.93-3.2-.4-4.84,5.07,2,1.47,6.75,1.24,9.44-.09,1,1.14,2.56.64,3.97Z"/>
    <path d="M90.86,79.71c.05-.49-.04-1,0-1.49h2.25c.62.65-1.38,5.3,1.5,4.47l-.75-4.47h1.87s1.07,1.17,1.07,1.17l.06,4.79-4.53-.35-.77-4.1c-.12-.18-.55.05-.7-.03-.17,1.57-.24,2.86-1.46,4.14l-3.04.34.75,2.23h-3c1.01-2.93,1.02-5.26,0-8.19,1.5.16,3.38-.31,4.78.09.53.15,1.18,1,1.97,1.4ZM88.61,79.71h-2.25s0,1.86,0,1.86l1.13,1.12h1.12s0-2.98,0-2.98Z"/>
    <path d="M72.11,84.18l-4.82-.05-1.13-1.12.29-4.07,3.4-.72-.75-2.23c5.2-.21,2,3.47,2.21,5.57.09.91,1.02,1.58.79,2.62ZM69.86,79.71h-2.25v2.98h2.25v-2.98Z"/>
    <path d="M109.61,82.69c-2.15,1.1-2.95,2.1-6,1.49l-.75-8.19c2.45-.25,2.42-.18,2.26,2.23l3.71.03c.61,1.61.68,2.79.78,4.44.15-.08.58.15.7-.03l-.7-6.67h2.25s.75,8.19.75,8.19h-3c-.02-.49.03-1,0-1.49ZM107.36,79.71h-2.25v2.98h2.25v-2.98Z"/>
    <path d="M98.78,78.26c5.41-1.5,4.84,5.34,2.92,5.88-5.41,1.5-4.84-5.34-2.92-5.88ZM100.24,79.71c-.49,0-.49.74,0,.74s.49-.74,0-.74ZM101.36,81.95h-1.5v.74h1.5v-.74Z"/>
    <path d="M115.99,77.61c1.17,0,3.1,2.14,3.31,3.32-.69,4.33-5.27,4.64-6.61.53-.22-1.3,2.04-3.85,3.31-3.85ZM117.11,79.71h-2.25v2.98h2.25v-2.98Z"/>
    <path d="M96.86,45.44c-2.94.93-5.65,1.25-8.56,0-.93-.4-.3-1.45-.44-2.23l7.81.06,1.19,2.17Z"/>
  </g>
</svg>