<?xml version="1.0" encoding="UTF-8"?>
<svg id="Capa_2" data-name="Capa 2" xmlns="http://www.w3.org/2000/svg" viewBox="0 0 99.74 70.61">
  <g id="Capa_1-2" data-name="Capa 1">
    <path d="M11.51,33.77c.55,1.29-1.53,2.83-1.53,3.45v29.55c3.02-.25,6.49.44,9.42-.17,3.2-.66,4.56-3.74,7.45-4.44l-.76,7.67H0c.52-2.21,1.37-3.22,1.57-5.72.51-6.44.65-19.08-.01-25.39C1.33,36.6.19,35.68,0,33.77h11.51Z"/>
    <path d="M92.83,46.05l-4.64.33-.59,3.74c1.04,3.45,11.34,5.7,12.13,11.71l-.33,3.44c-2.3,7.2-18.69,7.1-21.17-.46.96-8.56,10.08-5,6.94,2.71l4.84-.14c5.6-3.77-2.98-6.76-5.56-8.72-3.98-3.03-6.29-6.47-4.13-11.67,2.41-5.81,23.75-4.97,17.91,5.59l-2.72,1.13c-3.73-1.21-3.54-4.44-2.67-7.66Z"/>
    <path d="M99.74,3.07c.02,5.15-2.48,11.98-7.67,13.83l.44,1.55,3.4.75c1.01,2.61-4.88,1.29-3.83,3.44,4.5,2.84,7.49,8.14,7.67,13.43-1.36-.06-2.84.19-4.18-.04-3.24-.56-11.21-5.37-9.25-9.17l4.99-3.85-.44-1.55-3.4-.75c-.57-2.29,1.23-1.18,2.25-1.94l.82-1.88-4.98-4.6-2.68,4.59c-1.62-3.89-1.62-6.08,0-9.97l3.05,4.6c-.01-.89.52-1.71,1.12-2.34,2.18-2.31,5.59-5.35,8.66-5.93,1.35-.25,2.69-.23,4.04-.18Z"/>
    <path d="M49.1,33.77v31.85c0,.49,1.79,2.46,2.29,3.08v1.14s-12.27,0-12.27,0c.84-1.52,1.98-2.34,2.27-4.26.5-3.32.59-24-.14-26.65-.21-.77-2.41-3.4-2.13-3.62l9.97-1.54Z"/>
    <path d="M56.77,11.51h-4.6c-.64,6.41,10.03,6.75,10.02,13.43,0,8.41-16.14,7.14-17.36,2.75-1.06-3.84.75-6.75,4.57-4.6l1.17,1.2-.7,4.09h5.37c1.14-5.09-3.53-5.28-6.53-7.67-2.81-2.24-4.67-5.3-2.6-8.75,2.89-4.37,15.34-3.6,15.87,1.58s-8.38,4.12-5.22-2.04Z"/>
    <path d="M75.74,5.59c.65.58,4.58,5.67,4.58,6.3-.16,2.25-3.74,3.96-4.35,5.38-.96,2.21,4.81.79,3.83,3.44-9.26.76,1.57,4.57.69,7.93-3.14,3.99-7.61,7.79-12.97,7.43-.44-3.23.88-6.58,2.73-9.17,1.03-1.45,4.16-3.46,4.18-5.03l-3.84-2.31c.53-.85,4.72-.52,3.83-2.29-4.67-3.13-7.66-8.43-6.9-14.21.67-.73,7.21,1.63,8.22,2.53Z"/>
    <path d="M38.36,69.84h-11.51c.56-2.11,1.39-2.52,1.58-4.94.48-6.06.44-14-1.58-19.61l8.13-1.51,1.85,1.13v21.49c0,.62,2.09,2.16,1.53,3.45Z"/>
    <path d="M32.61,33.33c3.92,0,6.44,4.48,3.47,7.74-6.44,7.08-12.04-7.73-3.47-7.74Z"/>
    <path d="M83.62,32.99c-1.08-.19-2.25-3.53-2.3-4.27-.12-1.85,1.39-3.18,1.55-4.93,1.09.12,2.05,3.64,2.09,4.34.1,1.58-1.27,3.24-1.34,4.86Z"/>
    <path d="M38.77,10.72c-3.56-2.57-12.65-2.61-14.88,2.1-.39,4.28,1.49,4.88,5.32,3.73l.62-.91c-.55-5.89,1.71-5.07,4.65-1.34.59,2.63-7.32,4.05-9.13,5.3-2.59,1.79-3.71,5.6-7.16,7.42-3.09,1.63-6.36,1.48-9.75,1.38V2.68c0-.35,1.25-1.58.76-2.68H0c.19,1.92,1.33,2.83,1.55,4.96.53,5.02.42,14.89.01,20.01-.2,2.5-1.05,3.51-1.57,5.72h21.48l.77-3.07c3.91,4.1,8.27,4.86,12.66.88,2.48,2.78,5.01,3.89,8.06,1.02-3.9-5.1,1.32-14.82-4.21-18.81ZM33.43,26.15c-1.66,1.51-3.33.41-4.17-1.37l.22-2.57,5.05-3.79-1.09,7.73Z"/>
    <path d="M75.28,66.3c-.81-5.63,1.73-16.1-2.76-20.28-3.41-3.17-14.56-3.47-17.64.05-6.06,6.92,10.07,13.06,5.73-.02,1.12-1.06,6.93,2.63,6.19,4.97-.22,2.48-7.82,4.12-10.07,5.35-10.15,5.56-1.72,17.69,7.16,13.3,1.09-.54,2.16-2.31,3.14-2.09,3.03,3.71,7.72,4.15,10.46-.03l-2.21-1.25ZM64.87,64.51c-3.29,2.18-5.04-1.78-4.11-4.88l5.99-4.37c-.26,3.13,1.13,7.26-1.88,9.25Z"/>
  </g>
</svg>