<?xml version="1.0" encoding="UTF-8"?>
<svg id="Capa_2" data-name="Capa 2" xmlns="http://www.w3.org/2000/svg" viewBox="0 0 187.7 48.4">
  <g id="Capa_1-2" data-name="Capa 1">
    <path d="M53.79.06l5.34,17.45-5.63,28.66-35.58.39c-.72-.5-5.59-15.06-5.82-16.6-.28-1.87.77-3.51.65-5.36l5.96-.03c-.55,5.49,2.45,10.39,3.82,15.54l26.08.09c-.31-6.3,3.78-14.6,3.77-20.47,0-3.44-3.48-9.41-4.2-13.06l-25.71.07c0,1.65-.47,3.23-.77,4.84-.15.8.3,1.52-1.11,1.08-.63-.19-4.67-2.92-4.78-3.41L18.03.09l35.75-.03Z"/>
    <path d="M65.06,26.05l5.9.09,1.57,2.89c.56-4.51,8.35-4.45,8.99,0h1.47c1.33-5,7.18-4.06,9.73-.37v12.28h-5.99s-.1-8.46-.1-8.46c-6.44-5.62-3.62,7.7-4.39,8.46h-5.99s-.1-8.46-.1-8.46c-6.44-5.62-3.62,7.7-4.39,8.46h-6.73v-14.89Z"/>
    <path d="M0,22.32C.16,20.01,3.61,6.26,4.91,5.97l29.48,16.73-34.39-.37Z"/>
    <path d="M148.06,42.05c-.11.52-2.05,3.64-2.59,4.12-4.06,3.66-17.65,3.24-13.83-4.48,4.25.65,11.04,2.77,10.44-3.74l-3.69,2.65c-10.79,2.65-11.11-16.05-1.52-14.98,2.31.26,3.2.71,4.49,2.17.57.65.39.69,1.47.49l.03-2.18,5.2-.05c-.67,4.65.9,11.69,0,16ZM141.25,30.6l-4.09.6c-4.07,3.13,3.51,8.33,4.95,2.64l-.86-3.24Z"/>
    <path d="M137.59,0v20.09l-5.95-.04-.04-2.2c-14.14,9.64-15.51-18.52,0-10.41V0s5.99,0,5.99,0ZM127.21,15.54c.62.44,3.51.22,4.07-.6.54-1.12.68-3.47-.38-4.19-3.23-2.18-5.96,3.2-3.7,4.79Z"/>
    <path d="M82.26,0v20.09l-4.78-.08-1.21-2.15c-13.96,9.67-15.54-18.57,0-10.42V0s5.99,0,5.99,0ZM73.04,10.53c-3.61,1.06-1.72,6.09,2.04,5.05,2-.56,2.11-6.26-2.04-5.05Z"/>
    <path d="M114.41,40.93l-5.51-.1-2.35-2.87c-1.49,3.7-5.88,3.39-9.36,2.61-3.82-3.37-2.15-6.73,2.25-8.19l-2.97-2.94c2.87-4.66,12.59-5.12,15.7-.8,2.24,3.11,1.24,8.54,2.22,12.3ZM106.93,32l-1.24-1.42-3.25.69v.73s4.48,0,4.48,0ZM106.93,34.24c-1.21-.09-2.34.36-3.47.67-1.27.34-2.12-.62-1.76,1.56l5.23-2.22Z"/>
    <path d="M156.29,34.23l1.3,2.25c2.96,1.5,5.09-1.5,6.42-1.38l4.23,2.48c-5.68,6.95-19.53,4.71-17.9-5.92,1.28-8.35,17.64-8.07,18.55.86l-1.02,1.71h-11.59ZM162.27,30.52c-1.68-.63-5.54-1.38-5.23,1.48,1.58-.42,5.84,1.28,5.23-1.48Z"/>
    <path d="M187.7,40.93h-5.99c-.08-1.68.53-9.26-1.2-9.71l-2.6.47-.68,9.24h-6.73v-14.89l5.95.05c.45.63-.81,2.66,1.15,2.18,1.86-2.69,6.28-3.89,8.65-1.16.26.3,1.45,2.85,1.45,3.02v10.79Z"/>
    <path d="M180.22,13.4h-11.22c.09,3.37,4.46,2.65,6.36.99l4.1,2.35c-5.73,6.62-18.83,3.94-16.27-6.52,1.7-6.96,17.85-5.94,17.02,3.18ZM174.24,11.16c-.76-2.13-3.96-2.02-5.23-.36l5.23.36Z"/>
    <path d="M100.95,13.4h-11.22c.29,4.1,4.77,1.49,7.03,1.53,1.5.03,4.3.58,3.41,2.54-4.84,4.62-16.44,3.49-16.47-4.43-.04-10.02,17.89-9.78,17.24.36ZM94.97,11.16c.34-.28-1.15-1.68-1.88-1.53l-1.38.13-1.22,1.03,4.48.36Z"/>
    <path d="M156.29,13.4h-11.22c.29,4.1,4.77,1.49,7.03,1.53,1.5.03,4.3.58,3.41,2.54-4.84,4.62-16.44,3.49-16.47-4.43-.04-10.02,17.89-9.78,17.24.36ZM150.31,11.16c-.6-1.94-2.89-1.5-4.48-1.48v1.48s4.48,0,4.48,0Z"/>
    <path d="M115.91,11.91l2.08.12c4.38,9.47-10.46,9.81-15.53,5.46l2.13-3.1c-1.91-2.9-2.47-6.86,1.56-8.1,2.02-.62,12.72-1.05,11.98,2.24l-2.22,3.38ZM115.16,10.43c-2.12-.52-5.48-1.95-6.73.73,1.36,0,2.75.04,4.12,0,.9-.02,2.79.55,2.61-.74ZM112.91,14.14c-1.36.01-2.74-.03-4.12,0-.9.02-2.79-.55-2.61.74,1.91.62,3.57.87,5.61.76,1.21-.07,2.11-.65,1.11-1.49Z"/>
    <path d="M115.91,26.05l5.9.09,1.21,2.89c1.12-2.86,4.32-3.7,7.11-2.59l-.76,5.57-4.02-.53-2.02,1.02-.69,8.45h-6.73v-14.89Z"/>
    <polygon points="187.7 0 187.7 18.98 186.47 19.99 181.71 20.09 181.71 0 187.7 0"/>
  </g>
</svg>