<?xml version="1.0" encoding="UTF-8"?>
<svg id="Capa_2" data-name="Capa 2" xmlns="http://www.w3.org/2000/svg" viewBox="0 0 146.46 87.39">
  <g id="Capa_1-2" data-name="Capa 1">
    <path d="M88.79,37.21c-.29.41-2.03.56-2.84,1.26-1.12.98-.99,2.62-2.02,3.39-2.19,1.65-6.58,1.77-9.2,2.57l-1.51,2.6-3.7-1.57.72-2.15h-2.25s.76,1.48.76,1.48h-1.87s-1.08-2.59-1.08-2.59c-1.92-1.71-7.16.31-6.4-4.12l2.61,1.87c-3.87-3.64-1.82-8.55-4.32-12.8l.16-1c1.45-2.09,3.49-7.65,5.45-8.79,4.48-2.61,12.36-3.46,16.94-.8,3.01,1.75,1.21,2.78,1.6,4.46.25,1.05,1.56,1.81,1.84,3.29.63,3.34.29,7.84-2.58,10.06-5.06,3.92-12.08,4-12.34-3.75,2.93,3.1,7.49,5.82,10.5,1.17,1.54-2.38.08-8.83.02-12l-6.33-.44-1.22-2.9c-5.33,1.09-11.31,2.86-11.27,9.32,0,2.02,2.07,8.59,3.16,10.34,2.38,3.82,13.24,4.31,17.04,2.29,1.23-.66,2.52-2.62,3.82-3.64s3.49-.96,3.74-3.04c.13-1.08-.93-7.13-1.37-8.35-1.39-3.81-4.55-6.5-7.65-8.85l.83-3.24,4.65-.72c1.97.47,5.24,8.64,5.68,10.8.34,1.68,1.02,7.36.86,8.91-.04.38-2.22,6.61-2.43,6.92Z"/>
    <polygon points="82.2 27.66 81.45 24.68 80.71 24.68 81.46 27.66 82.2 27.66"/>
    <path d="M49.32,67.17l4.9-2.24,3.72,1.46,3.34,10.47,2.23-.75c1.35,1.44-5.88,9.02-9.01,1.91-.35-.8-2.4-12.44-4.43-10.11-.28,4.47-1.83,8.47.74,12.67h-8.97c1.33-5.76,1.1-12.79,0-18.6l8.21-3.76-.74,8.94Z"/>
    <path d="M27.64,65.68c-.34,5.06,2.37,10.44,5.62,14.16,1.57.32,1.22-.75,1.12-1.86-.34-3.66-2.87-9.98-5.99-11.92,6.79-3.82,15.74,4.04,10.46,11.18-8.49,11.47-26.69-3.7-11.22-11.56Z"/>
    <path d="M10.46,80.59H0c.09-.82,1.1-1.18,1.34-2.02.48-1.64.5-15,.14-16.99-.22-1.25-1.11-1.61-1.49-2.61l8.62-.58c.81.29.98.91,1.1,1.69,1.04,6.8-2.01,13.82.74,20.51Z"/>
    <path d="M83.69,76.12c.13,4.51-6.88,7.62-8.23,2.24h-1.1c-2.95,5.47-9.45,2.31-9.91-3.25l1.83-2.58,5.46-.88c-1.56,2.9-.12,7.78,2.96,4.85-2.04-3.58-.4-10.02-5.95-10.08-.22-1.08.84-.78,1.62-.96,3.03-.72,5.55-.83,8.13,1.3l3.32,9.43,1.86-.07Z"/>
    <path d="M17.94,69.43l5.23,11.91c-6.47.18-10.4-4.67-12.6-10.19-.14-1.51,4.41-3.49,2.55-9.23-.45-1.39-2.12-2.07-1.9-3.68,3.22.75,7.78.19,9.62,3.44s.98,6.92-2.89,7.75Z"/>
    <path d="M111.35,79.48c.03.22,1.11.82.75,1.11h-8.22s0-17.51,0-17.51c0-.18-.81-.58-.76-1.11l8.23-3.74c.65,6.63-.88,14.83,0,21.25Z"/>
    <path d="M93.41,65.68c-1.43,3.79,3.18,8.71,2.99,11.51-.06.92-2.21,5.88-2.82,6.92-.48.82.05,1.28-1.66.96l-7.48-19.38h8.97Z"/>
    <path d="M124.77,76.91c.79,1.1-3.93,6.4-7.42,3.29l-5.25-13.39c1.87-2.14,5.3-2.62,7.45-.73,2.82,2.47,1.03,9.82,5.22,10.83Z"/>
    <path d="M134.51,64.94c-.42,4.59-1.96,9.85.38,14.17,3.55-.08,3.24-9.06,1.12-11.18l8.96-2.99c.48.47-3.25,11.99,1.48,11.95v1.08c-2.31,3.16-6.8,5.22-8.21.39h-1.47c-1.19,4.31-7.55,3.55-9.16-.2-1.49-3.46.77-7.3-2.06-10.24l8.96-2.99Z"/>
    <path d="M94.15,35.86c.78,2.58,1.99,4.93,2.47,7.63.19,1.04.85,1.04-.61,2.06-1.05.19-2.83-1.61-4.02-1.84-1.28-.25-2.73,1.09-3.81-.78l4.28-6.13,1.68-.94Z"/>
    <path d="M76.97.08l1.92,7.45-1.63,1.34-7.01-1.34c-1.11-.92,4.01-6.08,4.85-6.71.65-.49.76-1.02,1.87-.73Z"/>
    <path d="M58.28,12.75c1.52,1.54-3.79,6.83-4.85,8.19l-3.36-8.93c3.18-.16,4.88,2.11,8.21.75Z"/>
    <path d="M90.42,14.99c1.67-.32,9.6.04,8.96,2.6l-5.6,5.59-3.36-8.19Z"/>
    <path d="M76.23,49.29c.87,2.08-4.21,7.73-5.6,7.45l-2.62-8.19,8.22.75Z"/>
    <path d="M56.79,41.82c-1.34.38-9.76-.4-9.7-1.86.82-1.38,2.94-1.88,3.77-2.96.95-1.24.35-3.04,2.93-3.38l3,8.2Z"/>
    <path d="M86.68,79.1c-.14,3.07,2.13,4.79,4.12,6.71.71.43-.48,1.36-.8,1.45-1.97.53-4.76-.71-6.35-1.93-.19-1.87.41-3.7,1.37-5.27.47-.78-.07-1.3,1.66-.96Z"/>
    <polygon points="100.88 65.69 100.13 68.66 99.4 68.66 98.64 65.69 100.88 65.69"/>
    <rect x="57.55" y="29.9" width=".74" height="2.23"/>
    <path d="M68.38,27.66c.49.25.49.5,0,.75v-.75Z"/>
  </g>
</svg>