<?xml version="1.0" encoding="UTF-8"?>
<svg id="Capa_2" data-name="Capa 2" xmlns="http://www.w3.org/2000/svg" viewBox="0 0 73.69 99.76">
  <g id="Capa_1-2" data-name="Capa 1">
    <path d="M58.49,3.26c4.3,4.92-5.02,11.02-7.06,15.17l3.3,4.04c11.15-2.83,20.66,6.02,18.7,17.54-.7,4.11-4.04,6.37-5.8,9.9,5.8,9.21-1.09,22.25-11.64,22.87-1.88.11-4.26-1.36-5.54-.4l-9.74,24.71c-2.99,3.86-5.82,3.48-8.01-.75-3.67-7.1-5.97-16.73-9.09-24.23-11.51,2.8-21.65-6-19-18.09.3-1.36,1.98-3.92,1.81-4.73-.2-.94-2.82-2.77-3.63-3.85-7.09-9.44.26-23.46,11.58-23.67,1.53-.03,3.24.97,4.31.7.97-.24,5.65-5.65,8.02-6.98,4.93-2.77,10.13-3.32,15.64-2.26,1.99-2.52,4.89-11.48,7.41-12.8s7.04.88,8.75,2.84ZM50.57,2.38l-8.19,15.42c-.29,1.3,2.2,2.64,3.29,3.09.9-.05,11.21-12.55,11.45-13.88.48-2.68-4.92-5.81-6.55-4.64ZM40.06,18.06c-.06-1.05,1.41-2.42-.45-2.92-4.9-1.31-11.98,1.93-15.58,5.16-1.92,1.72-2.14,4.62-5.94,4.55-3.27-.06-3.75-1.2-7.83.35-7.34,2.78-9.6,10.67-6.28,17.54,1.03,2.13,4.68,5.01,4.81,6.47.14,1.56-1.98,5.18-2.21,7.56-.67,6.85,5.4,13.69,12.24,13.68,3.42,0,6.67-3.22,9.63-2.89,2.3.25,5.1,2.88,8.25,2.89,3.85.01,7.08-3.1,9.7-2.96,2.07.11,2.62,1.48,4.07,1.97,5.56,1.89,12.06.24,15.09-5.12,4.44-7.87-1-10.86-.17-15.88.34-2.04,3.25-3.47,4.38-5.37,4.8-8.09-1.46-18.99-10.71-18.9-1.64.01-3,1.15-5.08.51s-3.54-5.64-5.72-2.47l-.37,2.59c-3.01-3.24-6.93-6.08-11.57-6-.66-3.2,3.17-.28,3.73-.74ZM48.27,70.56c-2.78-1.43-3.72.38-5.98,1.12-4.05,1.33-6.34,1.24-10.44.02-2.37-.7-7.32-4.57-5.61,1.88,1.28,4.81,5.96,16.38,8.23,20.98,1.1,2.22,1.94,3.86,4.16,1.77l9.63-25.76Z"/>
    <path d="M19.21,33.08v1.08c8.73,8.72-4.86,13.69-12.37,9.44-.5-9.93,5.22-2.46,9.77-2.26,1.24.05,3.98-.67,4.07-1.92.12-1.77-5.02-.32-6.23-.41-2.67-.21-7.41-1.89-7.92-4.85-1.21-7.08,5.16-7.83,10.75-7.05,4.64.64,7.07,3.9,1.93,5.97ZM16.96,33.05c-.84-2.06-6.16-6.55-7.45-3.36-.13.33-.31,1.98.46,1.86l6.98,1.51Z"/>
    <path d="M56.24,27.21c10.18-2.33,15.51,10.01,7.64,15.93-8.28,6.23-17.58-3.53-12.95-11.53.79-1.37,3.77-4.04,5.32-4.4ZM56.47,28.56c-1.86,2.46-.36,15.75,3.27,14.97s2.34-15.97-3.27-14.97Z"/>
    <path d="M53.29,48.22c11.83-2.06,13.76,16.13,2.77,17.8-12.45,1.88-13.41-15.94-2.77-17.8ZM53.12,49.56c-1.04.22-1.62,4.68-1.61,5.76,0,2.13,1.4,10.15,4.58,9.24s1.04-15.82-2.97-14.99Z"/>
    <path d="M42.3,45.05h-7.46c-.18-5.87.71-11.42,0-17.25l6.68.05.03,2.2c2.1,0,2.93-2.52,5.01-2.89,1.42-.25,2.99.64,3.87,1.75l-3.29,5.63c-6.55-7.13-6.34,6.2-4.85,10.51Z"/>
    <path d="M43.79,60.81c-.84,7.18-11.47,6.69-14.48,1.45-3.78-6.58.89-15.27,8.71-14.05,7,1.09,5.29,3.91.9,7.34-1.35.31-2.17-2.44-3.34-3.33-5-3.82-6.61,2.94-1.1,7.11,3.14,2.38,5.56,2.83,9.32,1.5Z"/>
    <path d="M19.95,55.55c-.04-3.11-6.43-6.91-6.76-2.62-.42,5.44,7.93,10.59,12.71,7.88-.17,6.22-8.74,6.76-12.63,3.33-6.32-5.58-1.65-16.93,6.96-16.05,1.89.19,5.61,1.61,4.88,4.02-.18.6-4.77,3.94-5.17,3.45Z"/>
    <path d="M31.87,33.81v11.25h-6.71s-.65-8.56-.65-8.56c1.81-2.09,4.69-2.98,7.36-2.69Z"/>
    <path d="M27.16,24.9c5.03-1.41,6.99,6.31,1.92,7.28s-5.09-6.39-1.92-7.28Z"/>
  </g>
</svg>