<?xml version="1.0" encoding="UTF-8"?>
<svg id="Capa_2" data-name="Capa 2" xmlns="http://www.w3.org/2000/svg" viewBox="0 0 172.59 48.48">
  <g id="Capa_1-2" data-name="Capa 1">
    <path d="M40.33,22.64H10.8c-.7,0-4.06,1.37-4.5,2.22l-.22,7.69c1,3.32,8.28,2.79,11.08,2.75v2.97s-15,.43-15,.43c-3.57-4.49,1.04-11.15.78-14.9-.14-1.94-2.45-5.61-2.79-8.44C-1.12,4.71,5.75.92,15.26.26c17.07-1.17,33.35.81,25.08,22.38ZM6.7,18.17c2.77-1.02,4.23-3.15,7.2-4.37,7.64-3.14,14.87-1.47,21.56,2.88,2.43-.49.4-6.67-.75-8.18-3.89-5.12-23.1-5.16-26.88,0-1.97,2.69-.89,6.53-1.13,9.67Z"/>
    <path d="M27.63,27.11v13.78l2.65,1.89,2.58-1.14v-13.41c1.03-1.65,7.99-1.5,9.02-.8l.57.92c1.57,6.94.32,14.27-5.12,19.24l-27.93.89c-3.34-.37-4.89-3.15-6.45-5.72h15.33c.72,0,3.28-1.45,3.57-2.4,3.26-12.89-4.99-7.62-9.91-9.9-1.57-.73-2.07-2.35-.39-3.34h16.07Z"/>
    <path d="M88.55,31.58c2.98.82,3.06,6.46,2.29,8.98-.99,3.2-3.07,2.76.33,7.4-.86-.06-1.82.16-2.65.05-3.95-.55-2.36-4.29-5.94-5.29l-1.76,1.27-.12,3.99-4.16-.7c-.72-1.08-.92-14.01.8-15.69h11.21ZM86.57,39.67l.82-2.53c-.18-2.83-4.45-3.42-6.36-1.88l-.33,4.52,5.87-.11Z"/>
    <path d="M95.4,31.7c1.73-.56,11.18-.49,12.29.92,1.53,1.96,1.53,13.22-.38,14.67-2.44,1.63-11.74,1.48-13.22-.37-.98-2.72-1.71-14.25,1.31-15.22ZM98,34.67l-.53,9.63,6.45.37.37-9.41-6.3-.59Z"/>
    <path d="M171.9,47.97l-4.03.05-1.14-2.7c-.9-.68-4.25-.53-5.31.03-1.65.86-1.16,4.04-5.95,2.61l5.94-16.04,4.91.38,5.58,15.66ZM164.42,37.55c-1.74-1.38-2.25,3.76-2.23,4.46h2.98s-.75-4.46-.75-4.46Z"/>
    <path d="M140.51,47.97l1.24-2.86c1.99-.62,8.62.86,9.22-1.24,1.38-4.84-8.16-.54-9.91-4.27-4.13-8.82,6.32-8.6,12.16-8.02v2.97c-.77.66-11.71-1.76-7.74,3.76,2.06.1,7.35-.68,8.54,1.2s1.05,8.44-1.18,8.44h-12.33Z"/>
    <path d="M139.01,31.58v2.98c-1.76.29-8.4-.86-8.96,1.13-1.28,4.46,8.19,1.03,7.47,4.45-.38,1.82-5.99.97-7.48,1.12v3.3s8.98.43,8.98.43v2.98h-12.71v-16.39h12.71Z"/>
    <polygon points="59.77 47.97 55.29 47.97 55.29 34.56 50.77 34.21 50.8 31.58 63.88 31.58 65 32.71 64.28 34.21 59.77 35.68 59.77 47.97"/>
    <polygon points="111.35 31.58 115.76 32.76 115.42 44.29 124.07 45 124.06 47.97 111.35 47.97 111.35 31.58"/>
    <path d="M73.98,31.59c.88,3.57-1.92,2.49-2.3,5.54s-.66,7.17,2.31,8.37v2.48s-8.24,0-8.24,0l.11-2.91,2.19-.48v-9.61s-1.73-.42-1.73-.42l-.56-1.84c.85-1.98,6.25-.86,8.22-1.12Z"/>
    <path d="M117.33,24.88h-2.24s0-5.21,0-5.21c-2.22-.69-1.93,3.4-4.04,2.95-1.68-.36-1.22-3.56-3.43-2.95v5.21c-4.2-.55-1.53-8-2.24-11.17,3.98-1.72,4.67,4.95,5.61,5.22,1.69.48,1.8-3.31,2.8-4.28.81-.79,2.43-.98,3.55-.94v11.17Z"/>
    <path d="M160.59,13.81c2.33,7.96,1.51,13.16-8.13,10.71-2.2-1.29-1.81-8.49-.63-10.71h8.76ZM158.45,22.65l-.34-6.74c-5.29-2.85-4.16,3.22-4.15,6.74h4.49Z"/>
    <path d="M139.01,24.88c-3.54.53-3.7-3.32-5.62-5.21-2.09-1.04-.67,4.71-1.12,5.2-4.19-.55-1.52-7.99-2.24-11.17,3.99-.48,4.16,4.23,6.72,5.96v-5.96s2.25,0,2.25,0v11.17Z"/>
    <path d="M64.25,13.71l.11,7.72,4.38,1.22.74-8.58,1.9.36c.42,2.41,1.27,8.92-1.14,10.08l-8.13-.47-.14-10,2.28-.33Z"/>
    <path d="M59.02,13.71c.06,3.64-4.27,1.09-5.96,3.35l6.39,1.81.22,5.16c-.63.94-9.63,2.14-8.86-1.38l5.48-.13,1.24-2.1-6.62-.85.22-5.16,7.89-.69Z"/>
    <path d="M103.87,13.71c.42,3.59-5.32,1.68-5.98,2.23v2.23s4.49.38,4.49.38l-4.16,1.81-.33,2.27c.64.63,6.15-1.3,5.97,1.11-1.1,1.65-7.18,1.52-8.26.8l-.7-10.85h8.97Z"/>
    <path d="M171.16,13.71c-.2,4.16-4.3-.05-5.96,3.35l5.98,1.48c2.31,2.66,1.89,5.78-1.92,6.27-2.21.28-6.5.83-6.31-2.16h6.73s0-2.24,0-2.24c-4.89.61-8.01-.58-6.4-6.01l7.89-.69Z"/>
    <path d="M122.56,15.94v2.23s4.49.38,4.49.38l-4.16,1.81-.33,2.27c11.65-.18,2.95,4.26-2.67,1.54l-.33-10.48c1.46.16,8.96-.66,8.96,1.12l-5.97,1.12Z"/>
    <path d="M73.97,24.88v-11.17l7.7.15c5,4.29,1.09,8.17-4.75,7.64-.98.66-.61,3.9-2.95,3.39ZM80.71,15.94h-4.49l.34,3.01.86.65,2.6-.26.7-3.4Z"/>
    <path d="M87.37,13.76c1.69,1.04-.39,7.88.91,8.8l5.14.09v2.23s-7.9-.69-7.9-.69l-.32-10.48,2.18.05Z"/>
    <path d="M150.22,13.71c.44,2.61-2.6,1.26-3.35,2.95-.74,1.81-.3,3.75-.38,5.62-.05,1.14.69,2.95-1.11,2.59-2.34-1.31-.45-8.21-1.16-8.9l-3.69-1.15c-.01-1.83,8.17-.93,9.7-1.11Z"/>
  </g>
</svg>