<?xml version="1.0" encoding="UTF-8"?>
<svg id="Capa_2" data-name="Capa 2" xmlns="http://www.w3.org/2000/svg" viewBox="0 0 119.53 49.95">
  <g id="Capa_1-2" data-name="Capa 1">
    <path d="M91.16.08c.12,3.34-.67,6.77-3.47,8.82-5.38,3.93-6.48,1.26-11.41.41-.96-.17-1.12.18-1.44.93l.26,39.71c-2.49-1.81-5.4.94-7.07-1.12l1.52-2.94-.41-40.61c-1.33-2.78-12.27-3.96-15.31-3.72v24.93c0,.42,4.8,3.73,6.12,5.81,2.96,4.7,2.82,9.51-.27,14.16s-7.73,2.18-12.57,2.72l.76-24.03c-7.58-4.61-11.69-11.93-7.15-20.66.64-1.23,3.29-4.42,4.52-4.42h45.93ZM47.84,23.15V2.69c0-2.93-4.51.3-5.56,1.9-4.37,6.62-1.67,15.5,5.56,18.57ZM74.72,1.57c-3.16,8,11.76,11.27,10.82,3.63-.62-5.1-7.3-3.38-10.82-3.63ZM53.82,29.11v18.23c2.51,3.13,5.76-2.46,6.37-4.81,1.45-5.62-.9-11.3-6.37-13.42Z"/>
    <path d="M7.52.08c-.08,1.54-.06,3,.33,4.51,3.35,12.98,10.25,26.33,13.86,39.4l3.7-9.31c-5.7-8.03-5.52-24.48.76-32,3.17-3.8,9.16-3.7,10.71,1.25,4.39,14-14.88,31.1-13.69,45.28-2.04-.15-4.7.76-5.91-1.18L.06,1.19C-.13-.32.12.22,1.16.08c1.98-.25,4.32.18,6.36,0ZM26.92,32.83c1.99-4.5,13.98-25.38,3.32-26.04-9.24-.57-8.78,19.15-4.98,25.09.47.74-.06,1.31,1.67.95Z"/>
    <path d="M119.53,49.2h-8.21c.55-1.15.69-1.68.46-2.97-.73-4.05-3.65-10.19-5.32-14.14-.31,10.49-7.39,18.87-18.63,17.07-1.97-.32-4.29-2.05-5.07-3.87-3-7.02,5.34-14.58,8.52-20.15,4.27-7.48,7.32-16.64,4.36-25.05,2.31-.08,5.24-.34,6.57,2,5.55,14.29,9.34,29.47,15.24,43.6.56,1.35,1.33,2.3,2.08,3.51ZM97.88,8.27c.13,4.68-1.64,9.69-3.6,13.9-1.73,3.7-7.36,10.2-7.64,13.25-.81,8.74,9.01,14.7,15.28,7.01,6.71-8.22.78-23.9-2.94-32.69-.3-.71-.07-1.7-1.1-1.49Z"/>
  </g>
</svg>